# OBJ generated by ONSHAPE BY PTC INC, 1.195 Units = meters
mtllib Floor.mtl
g Part 2
v 0.00635 0.02921 -0.314325 
v 0.00635 0.0254 -0.314325 
v 0.00635 0.0254 -0.00635 
v 0.00635 0.02921 -0.00635 
v 0.314325 0.0254 -0.00635 
v 0.314325 0.02921 -0.00635 
v 0.314325 0.0254 -0.314325 
v 0.314325 0.02921 -0.314325 
vn -1 0 0 
vn 0 0 1 
vn 1 0 3.60491e-16 
vn 0 0 -1 
vn 0 1 0 
vn 0 -1 0 
usemtl 0.623529_0.666667_0.701961_0.000000_0.000000
o mesh0
f 1//1 2//1 3//1 
f 3//1 4//1 1//1 
o mesh1
f 4//2 3//2 5//2 
f 5//2 6//2 4//2 
o mesh2
f 6//3 5//3 7//3 
f 7//3 8//3 6//3 
o mesh3
f 8//4 7//4 2//4 
f 2//4 1//4 8//4 
o mesh4
f 8//5 1//5 4//5 
f 4//5 6//5 8//5 
o mesh5
f 5//6 3//6 2//6 
f 2//6 7//6 5//6 
g Part 3
v -0.00635 0.02921 -0.00635 
v -0.00635 0.0254 -0.00635 
v -0.00635 0.0254 -0.314325 
v -0.00635 0.02921 -0.314325 
v -0.314325 0.0254 -0.314325 
v -0.314325 0.02921 -0.314325 
v -0.314325 0.0254 -0.00635 
v -0.314325 0.02921 -0.00635 
vn 1 0 0 
vn 0 0 -1 
vn -1 0 3.60491e-16 
vn 0 0 1 
vn 0 1 0 
vn 0 -1 0 
o mesh6
f 9//7 10//7 11//7 
f 11//7 12//7 9//7 
o mesh7
f 12//8 11//8 13//8 
f 13//8 14//8 12//8 
o mesh8
f 14//9 13//9 15//9 
f 15//9 16//9 14//9 
o mesh9
f 16//10 15//10 10//10 
f 10//10 9//10 16//10 
o mesh10
f 16//11 9//11 12//11 
f 12//11 14//11 16//11 
o mesh11
f 13//12 11//12 10//12 
f 10//12 15//12 13//12 
g Part 1
v 0.3175 0.0254 0.3175 
v 0.3175 0 0.3175 
v 0.3175 0 -0.3175 
v 0.3175 0.0254 -0.3175 
v -0.3175 0 -0.3175 
v -0.3175 0.0254 -0.3175 
v -0.3175 0 0.3175 
v -0.3175 0.0254 0.3175 
vn 1 0 2.62257e-16 
vn 0 0 -1 
vn -1 0 -2.62257e-16 
vn 0 0 1 
vn 0 1 0 
vn 0 -1 0 
usemtl 0.450980_0.450980_0.447059_0.000000_0.000000
o mesh12
f 17//13 18//13 19//13 
f 19//13 20//13 17//13 
o mesh13
f 20//14 19//14 21//14 
f 21//14 22//14 20//14 
o mesh14
f 22//15 21//15 23//15 
f 23//15 24//15 22//15 
o mesh15
f 24//16 23//16 18//16 
f 18//16 17//16 24//16 
o mesh16
f 24//17 17//17 20//17 
f 20//17 22//17 24//17 
o mesh17
f 21//18 19//18 18//18 
f 18//18 23//18 21//18 
g Part 4
v 0.314325 0.02921 0.00635 
v 0.314325 0.0254 0.00635 
v 0.00635 0.0254 0.00635 
v 0.00635 0.02921 0.00635 
v 0.00635 0.0254 0.314325 
v 0.00635 0.02921 0.314325 
v 0.314325 0.0254 0.314325 
v 0.314325 0.02921 0.314325 
vn 0 0 -1 
vn -1 0 0 
vn 0 0 1 
vn 1 0 -3.60491e-16 
vn 0 1 0 
vn 0 -1 0 
usemtl 0.623529_0.666667_0.701961_0.000000_0.000000
o mesh18
f 25//19 26//19 27//19 
f 27//19 28//19 25//19 
o mesh19
f 28//20 27//20 29//20 
f 29//20 30//20 28//20 
o mesh20
f 30//21 29//21 31//21 
f 31//21 32//21 30//21 
o mesh21
f 32//22 31//22 26//22 
f 26//22 25//22 32//22 
o mesh22
f 32//23 25//23 28//23 
f 28//23 30//23 32//23 
o mesh23
f 29//24 27//24 26//24 
f 26//24 31//24 29//24 
g Part 5
v -0.314325 0.02921 0.00635 
v -0.314325 0.0254 0.00635 
v -0.314325 0.0254 0.314325 
v -0.314325 0.02921 0.314325 
v -0.00635 0.0254 0.314325 
v -0.00635 0.02921 0.314325 
v -0.00635 0.0254 0.00635 
v -0.00635 0.02921 0.00635 
vn -1 0 -3.60491e-16 
vn 0 0 1 
vn 1 0 0 
vn 0 0 -1 
vn 0 1 0 
vn 0 -1 0 
o mesh24
f 33//25 34//25 35//25 
f 35//25 36//25 33//25 
o mesh25
f 36//26 35//26 37//26 
f 37//26 38//26 36//26 
o mesh26
f 38//27 37//27 39//27 
f 39//27 40//27 38//27 
o mesh27
f 40//28 39//28 34//28 
f 34//28 33//28 40//28 
o mesh28
f 40//29 33//29 36//29 
f 36//29 38//29 40//29 
o mesh29
f 37//30 35//30 34//30 
f 34//30 39//30 37//30 
