# OBJ generated by ONSHAPE BY PTC INC, 1.196 Units = meters
mtllib Part Studio 1.mtl
g Part 2
v 0.0635 0.5461 -0.0127 
v 0.0635 0.508 -0.0127 
v -0.0635 0.508 -0.0127 
v -0.0635 0.5461 -0.0127 
v -0.0635 0.5461 0.0508 
v 0.0635 0.5461 0.0508 
v 0.0635 0.52451 0.0508 
v 0.0635 0.510212 0.042545 
v 0.0635 0.509427 0.0410052 
v 0.0635 0.512241 0.0453373 
v 0.0635 0.511153 0.0439943 
v 0.0635 0.521077 0.0504392 
v 0.0635 0.519408 0.0499919 
v 0.0635 0.514806 0.0476469 
v 0.0635 0.513463 0.0465593 
v 0.0635 0.517795 0.0493726 
v 0.0635 0.516255 0.0485881 
v 0.0635 0.522784 0.0507096 
v 0.0635 0.508361 0.0377226 
v 0.0635 0.50809 0.0360158 
v 0.0635 0.508808 0.0393919 
v 0.0635 0.508 0.03429 
v -0.0635 0.52451 0.0508 
v -0.0635 0.517795 0.0493726 
v -0.0635 0.519408 0.0499919 
v -0.0635 0.510212 0.042545 
v -0.0635 0.511153 0.0439943 
v -0.0635 0.508808 0.0393919 
v -0.0635 0.509427 0.0410052 
v -0.0635 0.521077 0.0504392 
v -0.0635 0.514806 0.0476469 
v -0.0635 0.516255 0.0485881 
v -0.0635 0.512241 0.0453373 
v -0.0635 0.513463 0.0465593 
v -0.0635 0.508361 0.0377226 
v -0.0635 0.508 0.03429 
v -0.0635 0.50809 0.0360158 
v -0.0635 0.522784 0.0507096 
vn -1.22933e-16 0 -1 
vn 0 1 0 
vn 1 0 0 
vn -1 0 0 
vn 0 0 1 
vn 0 -1 0 
vn 0 -0.104528 0.994522 
vn 0 -0.207912 0.978148 
vn 0 -0.309017 0.951057 
vn 0 -0.406737 0.913545 
vn 0 -0.5 0.866025 
vn 0 -0.587785 0.809017 
vn 0 -0.669131 0.743145 
vn 0 -0.743145 0.669131 
vn 0 -0.809017 0.587785 
vn 0 -0.866025 0.5 
vn 0 -0.913545 0.406737 
vn 0 -0.951057 0.309017 
vn 0 -0.978148 0.207912 
vn 0 -0.994522 0.104528 
vn 0 -1 2.44929e-16 
usemtl 0.901961_0.878431_0.811765_0.000000_0.000000
o mesh0
f 1//1 2//1 3//1 
f 3//1 4//1 1//1 
o mesh1
f 5//2 6//2 1//2 
f 1//2 4//2 5//2 
o mesh2
f 7//3 8//3 9//3 
f 7//3 10//3 11//3 
f 7//3 12//3 13//3 
f 11//3 8//3 7//3 
f 7//3 14//3 15//3 
f 7//3 16//3 17//3 
f 7//3 18//3 12//3 
f 15//3 10//3 7//3 
f 13//3 16//3 7//3 
f 17//3 14//3 7//3 
f 7//3 19//3 20//3 
f 9//3 21//3 7//3 
f 21//3 19//3 7//3 
f 1//3 6//3 22//3 
f 22//3 6//3 7//3 
f 20//3 22//3 7//3 
f 22//3 2//3 1//3 
o mesh3
f 23//4 24//4 25//4 
f 23//4 26//4 27//4 
f 23//4 28//4 29//4 
f 25//4 30//4 23//4 
f 23//4 31//4 32//4 
f 23//4 33//4 34//4 
f 29//4 26//4 23//4 
f 32//4 24//4 23//4 
f 27//4 33//4 23//4 
f 34//4 31//4 23//4 
f 23//4 35//4 28//4 
f 23//4 36//4 37//4 
f 37//4 35//4 23//4 
f 30//4 38//4 23//4 
f 4//4 3//4 36//4 
f 36//4 5//4 4//4 
f 23//4 5//4 36//4 
o mesh4
f 6//5 5//5 23//5 
f 23//5 7//5 6//5 
o mesh5
f 3//6 2//6 22//6 
f 22//6 36//6 3//6 
o mesh6
f 7//5 23//5 38//7 
f 18//7 38//7 30//8 
f 12//8 30//8 25//9 
f 13//9 25//9 24//10 
f 16//10 24//10 32//11 
f 17//11 32//11 31//12 
f 14//12 31//12 34//13 
f 15//13 34//13 33//14 
f 10//14 33//14 27//15 
f 11//15 27//15 26//16 
f 8//16 26//16 29//17 
f 9//17 29//17 28//18 
f 21//18 28//18 35//19 
f 19//19 35//19 37//20 
f 20//20 37//20 36//21 
f 36//21 22//21 20//20 
f 37//20 20//20 19//19 
f 35//19 19//19 21//18 
f 28//18 21//18 9//17 
f 29//17 9//17 8//16 
f 26//16 8//16 11//15 
f 27//15 11//15 10//14 
f 33//14 10//14 15//13 
f 34//13 15//13 14//12 
f 31//12 14//12 17//11 
f 32//11 17//11 16//10 
f 24//10 16//10 13//9 
f 25//9 13//9 12//8 
f 30//8 12//8 18//7 
f 38//7 18//7 7//5 
g Part 1
v 0.0635 0.508 0.0127 
v 0.0635 0 0.0127 
v 0.0635 0 -0.0127 
v 0.0635 0.508 -0.0127 
v -0.0635 0 -0.0127 
v -0.0635 0.508 -0.0127 
v -0.0635 0 0.0127 
v -0.0635 0.508 0.0127 
vn 1 0 0 
vn -1.22933e-16 0 -1 
vn -1 0 0 
vn 1.09274e-16 0 1 
vn 0 1 0 
vn 0 -1 0 
usemtl 0.400000_0.400000_0.400000_0.000000_0.000000
o mesh7
f 39//22 40//22 41//22 
f 41//22 42//22 39//22 
o mesh8
f 42//23 41//23 43//23 
f 43//23 44//23 42//23 
o mesh9
f 44//24 43//24 45//24 
f 45//24 46//24 44//24 
o mesh10
f 46//25 45//25 40//25 
f 40//25 39//25 46//25 
o mesh11
f 46//26 39//26 42//26 
f 42//26 44//26 46//26 
o mesh12
f 43//27 41//27 40//27 
f 40//27 45//27 43//27 
